<?xml version="1.0" encoding="UTF-8"?>
<svg id="Layer_2" data-name="Layer 2" xmlns="http://www.w3.org/2000/svg" viewBox="0 0 73.48 45.08">
  <defs>
    <style>
      .cls-1 {
        stroke-width: 0px;
      }
    </style>
  </defs>
  <g id="Layer_1-2" data-name="Layer 1">
    <path class="cls-1" d="m25.04,43.14c-2.93,1.13-5.67,1.76-8.23,1.9s-4.86-.14-6.92-.86-3.83-1.81-5.33-3.28-2.65-3.25-3.45-5.34C.22,33.26-.13,31.07.04,28.99s.79-4,1.86-5.77,2.52-3.35,4.37-4.75,4.03-2.58,6.54-3.55c4.24-1.63,8.17-2.31,11.79-2.05,3.62.26,7.27,1.42,10.93,3.47,1.24-3.63,3.01-6.63,5.33-8.97,2.32-2.35,5.3-4.22,8.93-5.61,2.22-.85,4.48-1.4,6.78-1.64s4.47-.11,6.53.4,3.9,1.42,5.52,2.75,2.88,3.14,3.76,5.44c.83,2.17,1.19,4.23,1.06,6.16s-.68,3.74-1.66,5.4-2.37,3.16-4.17,4.49-3.93,2.47-6.4,3.42c-4.02,1.55-7.71,2.18-11.06,1.9s-6.56-1.27-9.65-2.98c-.54,1.64-1.23,3.24-2.05,4.79s-1.84,3.01-3.05,4.39-2.67,2.65-4.37,3.81-3.7,2.18-5.99,3.06Zm-3.03-5.83c1.31-.5,2.53-1.12,3.66-1.85s2.18-1.66,3.12-2.79,1.8-2.48,2.57-4.06,1.46-3.47,2.07-5.68c-1.73-1.02-3.36-1.8-4.89-2.36s-3.01-.92-4.42-1.08-2.81-.12-4.18.11-2.76.62-4.17,1.16c-1.59.61-2.91,1.36-3.97,2.25s-1.87,1.86-2.43,2.92-.87,2.17-.9,3.35.17,2.35.63,3.54,1.05,2.14,1.82,3,1.7,1.51,2.78,1.95,2.31.64,3.69.6,2.92-.38,4.62-1.03Zm36.26-14.59c3.14-1.21,5.22-2.78,6.24-4.71s1.06-4.12.13-6.55-2.41-3.99-4.44-4.76-4.57-.56-7.6.61c-1.38.53-2.59,1.18-3.63,1.95s-1.94,1.69-2.71,2.76-1.45,2.3-2.05,3.69-1.14,2.98-1.63,4.77c2.8,1.71,5.45,2.77,7.93,3.17s5.07.09,7.75-.94Z"/>
  </g>
</svg>