<?xml version="1.0" encoding="UTF-8"?>
<svg id="Layer_2" data-name="Layer 2" xmlns="http://www.w3.org/2000/svg" viewBox="0 0 82.01 67">
  <defs>
    <style>
      .cls-1 {
        fill: none;
        stroke: #000;
        stroke-miterlimit: 10;
      }

      .cls-2 {
        stroke-width: 0px;
      }
    </style>
  </defs>
  <g id="Layer_1-2" data-name="Layer 1">
    <path class="cls-2" d="m59.59,46.12c-.06.34-.15.66-.27.97,13.45,1.77,21.69,5.43,21.69,8.91,0,4.83-15.87,10-39.5,10-16.67,0-29.46-2.58-35.55-5.79-.03,0-.06,0-.09,0h-.09c-.9,0-1.74-.23-2.52-.68-.32-.25-.64-.49-.95-.74,4.44,4.77,20.07,8.21,39.21,8.21,22.71,0,40.5-4.83,40.5-11,0-4.39-9.02-8.1-22.42-9.88Z"/>
    <path class="cls-2" d="m27.45,45.66c-1.71.17-3.37.36-4.95.59-.21.41-.46.79-.76,1.12,1.91-.29,3.95-.54,6.09-.74-.15-.31-.28-.64-.37-.97Z"/>
    <path class="cls-2" d="m30.81,50.86c-1.76-1.95-2.8-4.31-2.8-6.86,0-6.62,6.95-12,15.5-12s15.5,5.38,15.5,12c0,2.39-.92,4.61-2.47,6.48.47-.08.91-.11,1.33-.1,1.36-1.89,2.14-4.06,2.14-6.38,0-7.17-7.4-13-16.5-13s-16.5,5.83-16.5,13c0,2.72,1.07,5.24,2.88,7.33.29-.18.6-.34.92-.47Z"/>
    <path class="cls-2" d="m30.78,21.91c-.57,4.94-2.15,10.67-4.66,16.44-6.14,14.14-15.66,23.7-21.25,21.29-1.25-.54-2.21-1.66-2.88-3.33-2.23-5.62-.7-16.09,3.89-26.67,4.85-11.17,11.81-19.46,17.27-21.28.1-.27.2-.53.34-.79.08-.15.19-.27.29-.41-5.97,1.31-13.54,9.92-18.82,22.08C.28,40.06-1.25,50.83,1.07,56.68c.77,1.93,1.91,3.23,3.41,3.88.7.3,1.44.44,2.22.44,6.16,0,14.61-9.03,20.35-22.25,2.52-5.81,4.12-11.6,4.7-16.62-.33-.04-.65-.11-.96-.21Z"/>
    <ellipse class="cls-1" cx="35.51" cy="11.5" rx="13" ry="11"/>
    <path class="cls-1" d="m30.51,12.5c4.58,1.45,6.37,4.56,4.29,9.95"/>
    <path class="cls-2" d="m40.52,21.19c.13-.05.26-.09.39-.12.24-.06.48-.1.73-.15,1.47-5.48-.2-9.15-4.96-10.89l-.34.94c4.39,1.61,5.76,4.96,4.18,10.23Z"/>
    <path class="cls-2" d="m45.68,11.42c.74,1.64.62,3.82-.35,6.48l.25.1c.33-.29.67-.57,1.04-.81.73-2.47.71-4.56-.04-6.23-.81-1.78-2.46-3.11-4.92-3.93l-.3,1.01c2.19.74,3.64,1.87,4.32,3.38Z"/>
  </g>
</svg>