<?xml version="1.0" encoding="UTF-8"?>
<svg id="Layer_2" data-name="Layer 2" xmlns="http://www.w3.org/2000/svg" viewBox="0 0 244.82 233.94">
  <defs>
    <style>
      .cls-1 {
        fill: #fff;
        stroke-width: 0px;
      }
    </style>
  </defs>
  <g id="Layer_1-2" data-name="Layer 1">
    <path class="cls-1" d="m121.77,45.19l20.48,40.02,4.79,9.36,10.43,1.36,44.58,5.81-31.73,31.85-7.42,7.45,1.93,10.34,8.25,44.19-40.09-20.34-9.38-4.76-9.23,5.03-39.48,21.5,6.95-44.42,1.63-10.39-7.64-7.23-32.65-30.91,44.39-7.11,10.38-1.66,4.51-9.5,19.3-40.6m-.66-45.19l-36.71,77.2L0,90.73l62.08,58.76-13.22,84.45,75.07-40.88,76.23,38.67-15.68-84.03,60.33-60.56-84.76-11.05L121.11,0h0Z"/>
  </g>
</svg>