<?xml version="1.0" encoding="UTF-8"?>
<svg id="Layer_2" data-name="Layer 2" xmlns="http://www.w3.org/2000/svg" viewBox="0 0 240.9 92.26">
  <defs>
    <style>
      .cls-1 {
        fill: #231f20;
        stroke-width: 0px;
      }
    </style>
  </defs>
  <g id="Layer_1-2" data-name="Layer 1">
    <path class="cls-1" d="m14.65.79v69.25h-2.17c-2.8,0-6.96.26-12.48.79v-1.18c2.28-.26,4.38-1.55,6.31-3.88,1.93-2.32,2.89-7.16,2.89-14.52v-31.99c0-6.09-.68-10.4-2.04-12.94C5.8,3.77,3.42,2.06,0,1.18V0c5.82.44,10.71.7,14.65.79Z"/>
    <path class="cls-1" d="m73.91,39.42c-4.77-4.9-7.16-10.77-7.16-17.61,0-7.18,2.39-13.42,7.16-18.72-8.8,3.55-13.21,9.59-13.21,18.13s4.4,14.43,13.21,18.2Z"/>
    <path class="cls-1" d="m64.21,44.34v25.07c-3.45.05-5.78.19-7,.42v-.63c1.9-.68,3.12-1.51,3.66-2.5.56-1.03.84-2.87.84-5.52v-9.07c0-2.51-.33-4.3-.98-5.38-.68-1.1-1.85-1.83-3.52-2.18v-.6c.73.14,3.06.27,7,.39Zm2.53,25.07v-25.07c.77-.02,1.71-.15,2.81-.39-.14.91-.23,2.48-.28,4.71,2.46-3.14,4.22-4.71,5.27-4.71.61,0,1.73.34,3.38,1.02,1.43.61,2.4.91,2.92.91.68,0,1.44-.48,2.29-1.44.07-.07.12-.12.14-.16.02-.04.13-.15.32-.33l.81.39c-1.12,2.53-2.58,3.8-4.36,3.8-.61,0-1.79-.39-3.55-1.16-.73-.33-1.28-.49-1.65-.49-1.12,0-2.32.73-3.59,2.18.61-.19,1.12-.28,1.55-.28.66,0,1.86.4,3.62,1.2,1.27.54,2.18.81,2.74.81.37,0,.76-.12,1.16-.35-1.15,1.48-2.26,2.21-3.34,2.21-.49,0-1.3-.27-2.43-.81-1.62-.8-2.74-1.2-3.38-1.2s-1.27.34-1.9,1.02v10.69c0,2.39.39,4.14,1.16,5.24.77,1.1,2.02,1.77,3.73,2v.63c-2.74-.28-5.22-.42-7.42-.42Z"/>
    <path class="cls-1" d="m90.78,46.1c-2.18,2.41-3.27,5.98-3.27,10.69s1.09,8.32,3.27,10.83c-4.06-2.3-6.08-5.95-6.08-10.97s2.03-8.46,6.08-10.55Zm-.88,11.04c0-4.55.93-7.93,2.78-10.16,1.88-2.25,4.45-3.38,7.73-3.38,3.05,0,5.57,1,7.56,2.99,1.99,1.99,2.99,5.29,2.99,9.88,0,5.04-1.07,8.56-3.2,10.55-2.16,2.02-4.64,3.02-7.45,3.02s-5.33-1.05-7.35-3.16c-2.04-2.09-3.06-5.33-3.06-9.74Zm2.95-.56c0,4.29.66,7.2,1.97,8.72,1.31,1.52,3.18,2.29,5.59,2.29,2.27,0,4.11-.8,5.52-2.39,1.38-1.59,2.07-4.5,2.07-8.72,0-7.1-2.53-10.65-7.59-10.65s-7.56,3.59-7.56,10.76Zm17.26,10.65c2.16-2.41,3.23-5.77,3.23-10.05,0-2.32-.26-4.5-.77-6.54-.54-2.09-1.36-3.61-2.46-4.57,4.1,2.27,6.15,5.77,6.15,10.48s-2.05,8.09-6.15,10.69Z"/>
    <path class="cls-1" d="m123.72,75.95v-31.61h2.57v31.15c0,4.12-.23,7.07-.7,8.82-.56,2.13-1.69,3.91-3.38,5.34-1.71,1.5-3.59,2.37-5.62,2.6v-.95c1.52-.52,2.92-1.48,4.18-2.88,1.22-1.38,2.02-2.95,2.39-4.71.37-1.71.56-4.3.56-7.77Z"/>
    <polygon class="cls-1" points="124.01 32.67 128.68 37.06 127.03 38.75 122.35 34.36 124.01 32.67"/>
    <polygon class="cls-1" points="127.31 29.29 131.99 33.69 130.33 35.41 125.66 30.98 127.31 29.29"/>
    <path class="cls-1" d="m128.79,75.31v-30.97h2.57v30.76c0,3.54-.29,6.07-.88,7.59-.61,1.57-1.81,3.07-3.59,4.5.82-1.45,1.31-2.78,1.48-3.97.14-.91.28-3.55.42-7.91Z"/>
    <path class="cls-1" d="m144.08,66.59l-.14.21c-3.54-2.04-5.31-5.24-5.31-9.6,0-1.69.32-3.32.95-4.89.63-1.57,1.96-3.15,3.97-4.75l.18.18c-1.48,2.55-2.21,5.62-2.21,9.21s.86,6.94,2.57,9.63Zm19.12-11.29h-16.31c-.05,1.17-.07,1.89-.07,2.14,0,3.05.83,5.5,2.5,7.35,1.66,1.83,3.83,2.74,6.5,2.74,2.2,0,4.2-.6,5.98-1.79,1.78-1.2,3.19-2.8,4.22-4.82h1.51c-2.16,6.16-6.26,9.25-12.3,9.25-3.63,0-6.43-1.27-8.4-3.8-1.97-2.51-2.95-5.68-2.95-9.53s.91-6.79,2.74-9.25c1.8-2.44,4.16-3.66,7.07-3.66,2.34,0,4.41.88,6.19,2.64,1.76,1.73,2.87,4.64,3.34,8.72Zm-16.03-2.6h12.52c-.12-1.69-.67-3.19-1.65-4.5-1.03-1.31-2.51-1.97-4.43-1.97-1.71,0-3.15.6-4.32,1.79-1.17,1.2-1.88,2.75-2.11,4.68Zm21.48,2.6h-3.13c-.12-4.27-1.23-7.39-3.34-9.39,3.77,1.57,5.93,4.7,6.47,9.39Z"/>
    <path class="cls-1" d="m178.71,46.45c-2.41,2.2-3.62,5.64-3.62,10.3s1.03,7.82,3.09,10.09c-1.95-.82-3.42-2.2-4.43-4.15-1.03-1.99-1.55-3.97-1.55-5.94,0-1.55.29-3.05.88-4.5.56-1.45,1.24-2.58,2.04-3.38s2.02-1.63,3.59-2.43Zm20.81,14.87h1.37c-.68,2.58-2,4.68-3.97,6.29-2.02,1.66-4.5,2.5-7.45,2.5-2.67,0-4.8-.54-6.4-1.62-1.64-1.1-2.98-2.57-4.01-4.39-1.08-1.85-1.62-4.16-1.62-6.93,0-3.84,1.05-7.01,3.16-9.49,2.06-2.48,5.37-3.73,9.91-3.73,3.19,0,6.35.57,9.49,1.72,0,.23-.02.56-.07.98-.02.26-.04.47-.04.63,0,.8.06,1.86.18,3.2.07.8.11,1.35.11,1.65,0,.4-.06,1.01-.18,1.83h-.74c-.56-2.58-1.71-4.56-3.45-5.94-1.71-1.36-3.76-2.04-6.15-2.04-2.72,0-4.96.91-6.71,2.74-1.78,1.81-2.67,4.36-2.67,7.66s.8,5.93,2.39,8.09c1.57,2.13,3.89,3.2,6.96,3.2,4.24,0,7.54-2.12,9.88-6.36Z"/>
    <path class="cls-1" d="m208.07,60.34v-13.08h-2.25v-.28l4.85-4.61v20.04c0,2.3.22,3.89.67,4.78.45.91,1.05,1.59,1.83,2.04-1.92-.14-3.26-.84-4.01-2.11-.73-1.24-1.09-3.5-1.09-6.79Zm7.56-23.34v7.84h6.01c1.1,0,1.93-.12,2.5-.35.61-.26,1.31-.79,2.11-1.58h.88c-1.43,1.99-2.45,3.22-3.06,3.69-.59.45-1.48.67-2.67.67h-5.77v13.43c0,1.99.11,3.36.32,4.11.19.73.64,1.36,1.37,1.9.73.52,1.75.77,3.06.77,2.6,0,4.85-1.22,6.75-3.66l.74.42c-1.92,3.73-4.71,5.59-8.37,5.59-1.57,0-2.88-.35-3.94-1.05-1.08-.7-1.79-1.59-2.14-2.67-.35-1.1-.53-2.68-.53-4.75v-21.16c.98-1.03,1.9-2.1,2.74-3.2Z"/>
    <path class="cls-1" d="m230.81,48.81l1.76-1.76,5.06,4.99-1.76,1.79-5.06-5.03Zm0,16.38l1.76-1.79,5.06,4.99-1.76,1.79-5.06-4.99Zm3.27-19.65l1.76-1.76,5.06,4.99-1.76,1.79-5.06-5.03Zm0,16.38l1.76-1.79,5.06,4.99-1.76,1.79-5.06-4.99Z"/>
    <path class="cls-1" d="m51.51,6.11c-3.68-4.07-9.42-6.11-17.21-6.11-1.84,0-3.53.09-5.06.26-2.32.22-4.73.37-7.23.46-.61.04-1.47.07-2.56.07v69.25h4.8l3.94.2c2.72.13,4.99.33,6.83.59v-1.18c-3.64-.48-6.24-2.12-7.82-4.93-1.62-2.72-2.43-6.94-2.43-12.68v-11.69c3.55,1.23,7.1,1.84,10.64,1.84,6.39,0,11.58-1.91,15.57-5.72,3.98-3.72,5.98-8.72,5.98-14.98s-1.82-11.26-5.45-15.37Zm-5.76,23.84s.03-.03.04-.05c-.71-.76-10.81-7.43-10.47,3.89-2.89,0-5.6-.53-8.12-1.59v-11.97c0-7.5.6-11.69,1.81-12.57,1.24-.84,3.22-1.26,5.93-1.26,4.9,0,8.51,1.32,10.81,3.95,2.31,2.63,3.46,5.95,3.46,9.94s-1.14,7.02-3.42,9.61c.06.07.06.09-.04.05Z"/>
    <path class="cls-1" d="m88.77,39.42c-4.77-4.9-7.16-10.77-7.16-17.61,0-7.18,2.39-13.42,7.16-18.72-8.8,3.55-13.21,9.59-13.21,18.13s4.4,14.43,13.21,18.2Z"/>
  </g>
</svg>